<?xml version="1.0" encoding="UTF-8" standalone="no"?>
<!-- Created with Inkscape (http://www.inkscape.org/) -->

<svg
   xmlns:dc="http://purl.org/dc/elements/1.1/"
   xmlns:cc="http://creativecommons.org/ns#"
   xmlns:rdf="http://www.w3.org/1999/02/22-rdf-syntax-ns#"
   xmlns:svg="http://www.w3.org/2000/svg"
   xmlns="http://www.w3.org/2000/svg"
   xmlns:sodipodi="http://sodipodi.sourceforge.net/DTD/sodipodi-0.dtd"
   xmlns:inkscape="http://www.inkscape.org/namespaces/inkscape"
   version="1.1"
   id="svg2"
   xml:space="preserve"
   width="801.74933"
   height="939.09332"
   viewBox="0 0 801.74933 939.09332"
   sodipodi:docname="Enriched_Pathways_INV_Low_Figure_4B.svg"
   inkscape:version="0.92.5 (2060ec1f9f, 2020-04-08)"><metadata
     id="metadata8"><rdf:RDF><cc:Work
         rdf:about=""><dc:format>image/svg+xml</dc:format><dc:type
           rdf:resource="http://purl.org/dc/dcmitype/StillImage" /><dc:title></dc:title></cc:Work></rdf:RDF></metadata><defs
     id="defs6"><clipPath
       clipPathUnits="userSpaceOnUse"
       id="clipPath74"><path
         d="M 407.49,39.41 H 590.28 V 693.09 H 407.49 Z"
         id="path72"
         inkscape:connector-curvature="0" /></clipPath></defs><sodipodi:namedview
     pagecolor="#ffffff"
     bordercolor="#666666"
     borderopacity="1"
     objecttolerance="10"
     gridtolerance="10"
     guidetolerance="10"
     inkscape:pageopacity="0"
     inkscape:pageshadow="2"
     inkscape:window-width="1848"
     inkscape:window-height="1016"
     id="namedview4"
     showgrid="false"
     inkscape:zoom="0.75"
     inkscape:cx="472.90133"
     inkscape:cy="469.016"
     inkscape:window-x="72"
     inkscape:window-y="27"
     inkscape:window-maximized="1"
     inkscape:current-layer="g710" /><g
     id="g10"
     inkscape:groupmode="layer"
     inkscape:label="Enriched_Pathways_INV_Low_Figure_4B"
     transform="matrix(1.3333333,0,0,-1.3333333,-7.0986665,950.07731)"><g
       id="g710"><g
         id="g16" /><g
         id="g18" /><g
         id="g20" /><g
         id="g22" /><g
         id="g24" /><g
         id="g26" /><g
         id="g28" /><g
         id="g30" /><g
         id="g32" /><g
         id="g34" /><g
         id="g36" /><g
         id="g38" /><g
         id="g40" /><g
         id="g42" /><g
         id="g44" /><g
         id="g46" /><g
         id="g48" /><g
         id="g50" /><g
         id="g52" /><g
         id="g54" /><g
         id="g56" /><g
         id="g58" /><g
         id="g60" /><g
         id="g66" /><g
         id="g68"><g
           clip-path="url(#clipPath74)"
           id="g70"><path
             inkscape:connector-curvature="0"
             id="path76"
             style="fill:#ffffff;fill-opacity:1;fill-rule:nonzero;stroke:none"
             d="M 407.49,39.41 H 590.28 V 693.09 H 407.49 Z" /><path
             inkscape:connector-curvature="0"
             id="path78"
             style="fill:#a600b7;fill-opacity:1;fill-rule:nonzero;stroke:#a600b7;stroke-width:0.70999998;stroke-linecap:round;stroke-linejoin:round;stroke-miterlimit:10;stroke-dasharray:none;stroke-opacity:1"
             d="m 411.46,102.67 c 0,2.39 1.95,4.35 4.34,4.35 2.39,0 4.34,-1.96 4.34,-4.35 0,-2.38 -1.95,-4.34 -4.34,-4.34 -2.39,0 -4.34,1.96 -4.34,4.34" /><path
             inkscape:connector-curvature="0"
             id="path80"
             style="fill:#dd0067;fill-opacity:1;fill-rule:nonzero;stroke:#dd0067;stroke-width:0.70999998;stroke-linecap:round;stroke-linejoin:round;stroke-miterlimit:10;stroke-dasharray:none;stroke-opacity:1"
             d="m 411.81,208.11 c 0,3.14 2.57,5.71 5.71,5.71 3.15,0 5.72,-2.57 5.72,-5.71 0,-3.15 -2.57,-5.72 -5.72,-5.72 -3.14,0 -5.71,2.57 -5.71,5.72" /><path
             inkscape:connector-curvature="0"
             id="path82"
             style="fill:#ff0000;fill-opacity:1;fill-rule:nonzero;stroke:#ff0000;stroke-width:0.70999998;stroke-linecap:round;stroke-linejoin:round;stroke-miterlimit:10;stroke-dasharray:none;stroke-opacity:1"
             d="m 412.17,313.54 c 0,3.71 3.04,6.75 6.75,6.75 3.72,0 6.76,-3.04 6.76,-6.75 0,-3.72 -3.04,-6.76 -6.76,-6.76 -3.71,0 -6.75,3.04 -6.75,6.76" /><path
             inkscape:connector-curvature="0"
             id="path84"
             style="fill:#0000ff;fill-opacity:1;fill-rule:nonzero;stroke:#0000ff;stroke-width:0.70999998;stroke-linecap:round;stroke-linejoin:round;stroke-miterlimit:10;stroke-dasharray:none;stroke-opacity:1"
             d="m 431.93,418.97 c 0,0.78 0.64,1.42 1.42,1.42 0.78,0 1.42,-0.64 1.42,-1.42 0,-0.78 -0.64,-1.42 -1.42,-1.42 -0.78,0 -1.42,0.64 -1.42,1.42" /><path
             inkscape:connector-curvature="0"
             id="path86"
             style="fill:#6e00e3;fill-opacity:1;fill-rule:nonzero;stroke:#6e00e3;stroke-width:0.70999998;stroke-linecap:round;stroke-linejoin:round;stroke-miterlimit:10;stroke-dasharray:none;stroke-opacity:1"
             d="m 564.97,524.4 c 0,1.77 1.45,3.22 3.22,3.22 1.76,0 3.21,-1.45 3.21,-3.22 0,-1.77 -1.45,-3.21 -3.21,-3.21 -1.77,0 -3.22,1.44 -3.22,3.21" /><path
             inkscape:connector-curvature="0"
             id="path88"
             style="fill:#6e00e3;fill-opacity:1;fill-rule:nonzero;stroke:#6e00e3;stroke-width:0.70999998;stroke-linecap:round;stroke-linejoin:round;stroke-miterlimit:10;stroke-dasharray:none;stroke-opacity:1"
             d="m 578.75,629.84 c 0,1.76 1.45,3.21 3.22,3.21 1.77,0 3.21,-1.45 3.21,-3.21 0,-1.77 -1.44,-3.22 -3.21,-3.22 -1.77,0 -3.22,1.45 -3.22,3.22" /><path
             inkscape:connector-curvature="0"
             id="path90"
             style="fill:none;stroke:#333333;stroke-width:1.07000005;stroke-linecap:round;stroke-linejoin:round;stroke-miterlimit:10;stroke-dasharray:none;stroke-opacity:1"
             d="M 407.49,39.41 H 590.28 V 693.09 H 407.49 Z" /></g></g><g
         id="g92" /><g
         id="g94" /><g
         id="g96" /><g
         id="g98" /><g
         id="g100" /><g
         id="g102" /><g
         id="g104" /><g
         id="g106" /><g
         id="g108" /><g
         id="g110" /><g
         id="g112" /><g
         id="g114" /><g
         id="g116" /><g
         id="g118" /><g
         id="g120" /><g
         id="g122"><text
           id="text126"
           style="font-variant:normal;font-weight:normal;font-size:14px;font-family:Helvetica;-inkscape-font-specification:Helvetica;writing-mode:lr-tb;fill:#4363d8;fill-opacity:1;fill-rule:nonzero;stroke:none"
           transform="matrix(1,0,0,-1,151.48,97.65)"><tspan
             id="tspan124"
             sodipodi:role="line"
             y="0"
             x="0 10.892 18.676001 26.459999 34.243999 39.116001 42.223999 49.223999 53.116001 59.990002 64.512001 72.295998 80.080002 87.080002 94.080002 98.952003 102.06 109.844 113.736 116.844 124.628 132.412 136.304 145.082 152.866 156.758 164.54201 174.44 181.804 188.804 192.696 196.588 204.37199 212.15601 216.048 223.832 231.616 239.39999 247.18401">Generic Transcription Pathway [14/1091]</tspan></text>
<text
           id="text130"
           style="font-variant:normal;font-weight:normal;font-size:14px;font-family:Helvetica;-inkscape-font-specification:Helvetica;writing-mode:lr-tb;fill:#4363d8;fill-opacity:1;fill-rule:nonzero;stroke:none"
           transform="matrix(1,0,0,-1,138.91,203.08)"><tspan
             id="tspan128"
             sodipodi:role="line"
             y="0"
             x="0 10.108 20.216 29.554001 33.445999 42.084 49.868 52.976002 59.976002 71.638 79.421997 83.944 91.727997 98.727997 106.512 110.404 114.296 118.188 122.08 128.95399 133.476 141.25999 149.04401 156.04401 163.04401 167.916 171.024 178.808 182.7 185.808 193.592 201.37601 205.26801 209.16 216.944 224.728 228.62 236.40401 244.188 251.972 259.75601">RNA Polymerase II Transcription [17/1219]</tspan></text>
<text
           id="text134"
           style="font-variant:normal;font-weight:normal;font-size:14px;font-family:Helvetica;-inkscape-font-specification:Helvetica;writing-mode:lr-tb;fill:#4363d8;fill-opacity:1;fill-rule:nonzero;stroke:none"
           transform="matrix(1,0,0,-1,142.37,308.51)"><tspan
             id="tspan132"
             sodipodi:role="line"
             y="0"
             x="0 10.892 18.676001 26.459999 34.243999 38.136002 45.5 52.5 60.284 64.945999 72.730003 79.730003 86.730003 89.837997 97.622002 105.406 109.298 113.96 120.834 125.356 133.14 140.924 147.924 154.924 159.79601 162.90401 170.688 174.58 177.688 185.472 193.256 197.918 201.81 205.702 213.48599 221.27 225.162 232.946 240.73 248.51401 256.298">Gene expression (Transcription) [20/1347]</tspan></text>
<text
           id="text138"
           style="font-variant:normal;font-weight:normal;font-size:14px;font-family:Helvetica;-inkscape-font-specification:Helvetica;writing-mode:lr-tb;fill:#3cb44b;fill-opacity:1;fill-rule:nonzero;stroke:none"
           transform="matrix(1,0,0,-1,167.58,413.95)"><tspan
             id="tspan136"
             sodipodi:role="line"
             y="0"
             x="0 10.108 17.892 22.554001 30.337999 42 49.784 53.675999 56.784 64.568001 68.459999 80.122002 87.905998 95.690002 98.797997 102.69 109.69 112.798 120.582 128.366 132.258 140.04201 147.826 154.826 161.826 173.48801 181.272 188.272 192.164 196.056 203.84 207.73199 215.51601 223.3 231.084">Chromatin modifying enzymes [5/207]</tspan></text>
<text
           id="text142"
           style="font-variant:normal;font-weight:normal;font-size:14px;font-family:Helvetica;-inkscape-font-specification:Helvetica;writing-mode:lr-tb;fill:#3cb44b;fill-opacity:1;fill-rule:nonzero;stroke:none"
           transform="matrix(1,0,0,-1,21.35,519.38)"><tspan
             id="tspan140"
             sodipodi:role="line"
             y="0"
             x="0 9.3380003 17.514 30.73 34.622002 44.73 54.838001 58.73 65.730003 73.514 85.176003 92.959999 96.068001 103.432 110.432 114.324 122.108 129.892 136.892 140 143.892 147 153.64999 161.43401 164.54201 171.54201 175.43401 180.09599 187.88 195.664 203.448 206.556 214.34 218.23199 226.01601 233.01601 236.908 241.57001 251.67799 261.78601 271.12399 275.01599 282.38 289.38 297.164 301.82599 309.60999 316.60999 323.60999 326.71799 334.50201 342.28601 346.17801 350.07001 357.854 361.746 369.53 377.314">B−WICH complex positively regulates rRNA expression [3/27]</tspan></text>
<text
           id="text146"
           style="font-variant:normal;font-weight:normal;font-size:14px;font-family:Helvetica;-inkscape-font-specification:Helvetica;writing-mode:lr-tb;fill:#3cb44b;fill-opacity:1;fill-rule:nonzero;stroke:none"
           transform="matrix(1,0,0,-1,50.84,624.81)"><tspan
             id="tspan144"
             sodipodi:role="line"
             y="0"
             x="0 10.108 17.892 25.676001 33.459999 37.352001 40.459999 47.110001 54.894001 58.785999 66.57 74.353996 77.461998 85.246002 93.029999 100.814 108.598 112.49 115.598 122.598 126.49 131.15199 138.936 146.72 154.504 157.612 165.396 169.28799 172.396 180.17999 187.964 191.856 199.64 203.532 207.424 212.086 222.194 232.302 241.64 245.532 252.896 259.896 267.67999 272.34201 280.12601 287.12601 294.12601 297.23401 305.01801 312.802 316.694 320.586 328.37 332.26199 340.04599 347.82999">Negative epigenetic regulation of rRNA expression [3/25]</tspan></text>
</g><g
         id="g148" /><g
         id="g150"><path
           inkscape:connector-curvature="0"
           id="path152"
           style="fill:none;stroke:#333333;stroke-width:1.07000005;stroke-linecap:butt;stroke-linejoin:round;stroke-miterlimit:10;stroke-dasharray:none;stroke-opacity:1"
           d="m 404.75,102.67 h 2.74" /><path
           inkscape:connector-curvature="0"
           id="path154"
           style="fill:none;stroke:#333333;stroke-width:1.07000005;stroke-linecap:butt;stroke-linejoin:round;stroke-miterlimit:10;stroke-dasharray:none;stroke-opacity:1"
           d="m 404.75,208.11 h 2.74" /><path
           inkscape:connector-curvature="0"
           id="path156"
           style="fill:none;stroke:#333333;stroke-width:1.07000005;stroke-linecap:butt;stroke-linejoin:round;stroke-miterlimit:10;stroke-dasharray:none;stroke-opacity:1"
           d="m 404.75,313.54 h 2.74" /><path
           inkscape:connector-curvature="0"
           id="path158"
           style="fill:none;stroke:#333333;stroke-width:1.07000005;stroke-linecap:butt;stroke-linejoin:round;stroke-miterlimit:10;stroke-dasharray:none;stroke-opacity:1"
           d="m 404.75,418.97 h 2.74" /><path
           inkscape:connector-curvature="0"
           id="path160"
           style="fill:none;stroke:#333333;stroke-width:1.07000005;stroke-linecap:butt;stroke-linejoin:round;stroke-miterlimit:10;stroke-dasharray:none;stroke-opacity:1"
           d="m 404.75,524.4 h 2.74" /><path
           inkscape:connector-curvature="0"
           id="path162"
           style="fill:none;stroke:#333333;stroke-width:1.07000005;stroke-linecap:butt;stroke-linejoin:round;stroke-miterlimit:10;stroke-dasharray:none;stroke-opacity:1"
           d="m 404.75,629.84 h 2.74" /></g><g
         id="g164" /><g
         id="g166" /><g
         id="g168" /><g
         id="g170" /><g
         id="g172" /><g
         id="g174" /><g
         id="g176" /><g
         id="g178" /><g
         id="g180" /><g
         id="g182"><path
           inkscape:connector-curvature="0"
           id="path184"
           style="fill:none;stroke:#333333;stroke-width:1.07000005;stroke-linecap:butt;stroke-linejoin:round;stroke-miterlimit:10;stroke-dasharray:none;stroke-opacity:1"
           d="m 434.66,36.67 v 2.74" /><path
           inkscape:connector-curvature="0"
           id="path186"
           style="fill:none;stroke:#333333;stroke-width:1.07000005;stroke-linecap:butt;stroke-linejoin:round;stroke-miterlimit:10;stroke-dasharray:none;stroke-opacity:1"
           d="m 473.43,36.67 v 2.74" /><path
           inkscape:connector-curvature="0"
           id="path188"
           style="fill:none;stroke:#333333;stroke-width:1.07000005;stroke-linecap:butt;stroke-linejoin:round;stroke-miterlimit:10;stroke-dasharray:none;stroke-opacity:1"
           d="m 512.19,36.67 v 2.74" /><path
           inkscape:connector-curvature="0"
           id="path190"
           style="fill:none;stroke:#333333;stroke-width:1.07000005;stroke-linecap:butt;stroke-linejoin:round;stroke-miterlimit:10;stroke-dasharray:none;stroke-opacity:1"
           d="m 550.96,36.67 v 2.74" /><path
           inkscape:connector-curvature="0"
           id="path192"
           style="fill:none;stroke:#333333;stroke-width:1.07000005;stroke-linecap:butt;stroke-linejoin:round;stroke-miterlimit:10;stroke-dasharray:none;stroke-opacity:1"
           d="m 589.72,36.67 v 2.74" /></g><g
         id="g194" /><g
         id="g196"><text
           id="text200"
           style="font-variant:normal;font-weight:normal;font-size:14px;font-family:Helvetica;-inkscape-font-specification:Helvetica;writing-mode:lr-tb;fill:#000000;fill-opacity:1;fill-rule:nonzero;stroke:none"
           transform="matrix(1,0,0,-1,417.15,24.43)"><tspan
             id="tspan198"
             sodipodi:role="line"
             y="0"
             x="0 7.7839999 11.676 19.459999 27.243999">0.025</tspan></text>
<text
           id="text204"
           style="font-variant:normal;font-weight:normal;font-size:14px;font-family:Helvetica;-inkscape-font-specification:Helvetica;writing-mode:lr-tb;fill:#000000;fill-opacity:1;fill-rule:nonzero;stroke:none"
           transform="matrix(1,0,0,-1,455.91,24.43)"><tspan
             id="tspan202"
             sodipodi:role="line"
             y="0"
             x="0 7.7839999 11.676 19.459999">0.05</tspan></text>
<text
           id="text208"
           style="font-variant:normal;font-weight:normal;font-size:14px;font-family:Helvetica;-inkscape-font-specification:Helvetica;writing-mode:lr-tb;fill:#000000;fill-opacity:1;fill-rule:nonzero;stroke:none"
           transform="matrix(1,0,0,-1,494.68,24.43)"><tspan
             id="tspan206"
             sodipodi:role="line"
             y="0"
             x="0 7.7839999 11.676 19.459999 27.243999">0.075</tspan></text>
<text
           id="text212"
           style="font-variant:normal;font-weight:normal;font-size:14px;font-family:Helvetica;-inkscape-font-specification:Helvetica;writing-mode:lr-tb;fill:#000000;fill-opacity:1;fill-rule:nonzero;stroke:none"
           transform="matrix(1,0,0,-1,533.44,24.43)"><tspan
             id="tspan210"
             sodipodi:role="line"
             y="0"
             x="0 7.7839999 11.676 19.459999">0.10</tspan></text>
<text
           id="text216"
           style="font-variant:normal;font-weight:normal;font-size:14px;font-family:Helvetica;-inkscape-font-specification:Helvetica;writing-mode:lr-tb;fill:#000000;fill-opacity:1;fill-rule:nonzero;stroke:none"
           transform="matrix(1,0,0,-1,572.21,24.43)"><tspan
             id="tspan214"
             sodipodi:role="line"
             y="0"
             x="0 7.7839999 11.676 19.459999 27.243999">0.125</tspan></text>
</g><g
         id="g218" /><g
         id="g220" /><g
         id="g222" /><g
         id="g224" /><g
         id="g226" /><g
         id="g228"
         transform="translate(0,3.0000001)"><text
           id="text232"
           style="font-variant:normal;font-weight:normal;font-size:14px;font-family:Helvetica;-inkscape-font-specification:Helvetica;writing-mode:lr-tb;fill:#000000;fill-opacity:1;fill-rule:nonzero;stroke:none"
           transform="matrix(1,0,0,-1,463.48,8.56)"><tspan
             id="tspan230"
             sodipodi:role="line"
             y="0"
             x="0 10.892 18.676001 26.459999 34.243999 38.136002 48.243999 56.028 59.919998 63.028">Gene Ratio</tspan></text>
</g><g
         id="g234" /><g
         id="g236"
         transform="translate(11,3.0000001)"><text
           id="text240"
           style="font-variant:normal;font-weight:normal;font-size:14px;font-family:Helvetica;-inkscape-font-specification:Helvetica;writing-mode:lr-tb;fill:#000000;fill-opacity:1;fill-rule:nonzero;stroke:none"
           transform="matrix(0,1,1,0,15.53,306.83)"><tspan
             id="tspan238"
             sodipodi:role="line"
             y="0"
             x="0 9.3380003 17.122 21.993999 25.101999 32.102001 39.886002 47.669998 55.453999 59.346001 68.124001 75.907997 79.800003 87.584 97.482002 104.846 111.846">Enriched Pathways</tspan></text>
</g><g
         id="g242" /><g
         id="g244" /><g
         id="g246" /><g
         id="g248" /><g
         id="g250" /><g
         id="g252" /><g
         id="g254" /><g
         id="g260" /><g
         id="g262" /><g
         id="g264" /><g
         id="g272" /><g
         id="g274" /><g
         id="g280" /><g
         id="g286" /><g
         id="g292" /><g
         id="g298" /><g
         id="g304" /><g
         id="g310" /><g
         id="g316" /><g
         id="g322" /><g
         id="g328" /><g
         id="g334" /><g
         id="g336" /><g
         id="g338" /><g
         id="g346" /><g
         id="g348" /><g
         id="g350" /><g
         id="g352" /><g
         id="g360" /><g
         id="g362" /><g
         id="g364" /><g
         id="g366" /><g
         id="g374" /><g
         id="g376" /><g
         id="g378" /><g
         id="g380" /><g
         id="g388" /><g
         id="g390" /><g
         id="g392" /><g
         id="g394" /><g
         transform="translate(-127.81,-265.11)"
         id="g480"><g
           id="g256"><path
             d="M 601.24,307.52 H 714.52 V 424.98 H 601.24 Z"
             style="fill:#ffffff;fill-opacity:1;fill-rule:nonzero;stroke:none"
             id="path258"
             inkscape:connector-curvature="0" /></g><g
           id="g266"
           transform="translate(-1,-6.0000002)"><text
             transform="matrix(1,0,0,-1,606.72,407.92)"
             style="font-variant:normal;font-weight:normal;font-size:14px;font-family:Helvetica;-inkscape-font-specification:Helvetica;writing-mode:lr-tb;fill:#000000;fill-opacity:1;fill-rule:nonzero;stroke:none"
             id="text270"><tspan
               sodipodi:role="line"
               id="tspan268"
               style="font-style:normal;font-variant:normal;font-weight:normal;font-stretch:normal;font-size:14px;font-family:'Nimbus Sans';-inkscape-font-specification:'Nimbus Sans, Normal';font-variant-ligatures:normal;font-variant-caps:normal;font-variant-numeric:normal;font-feature-settings:normal;text-align:start;writing-mode:lr-tb;text-anchor:start"
               x="0"
               y="0">-log10(P.adjust)</tspan></text>
</g><g
           id="g276"><path
             d="M 606.72,382.12 H 624 v 17.28 h -17.28 z"
             style="fill:#ffffff;fill-opacity:1;fill-rule:nonzero;stroke:none"
             id="path278"
             inkscape:connector-curvature="0" /></g><g
           id="g282"><path
             d="m 613.5,390.76 c 0,1.02 0.84,1.85 1.86,1.85 1.01,0 1.85,-0.83 1.85,-1.85 0,-1.02 -0.84,-1.85 -1.85,-1.85 -1.02,0 -1.86,0.83 -1.86,1.85"
             style="fill:#1800fd;fill-opacity:1;fill-rule:nonzero;stroke:#1800fd;stroke-width:0.70999998;stroke-linecap:round;stroke-linejoin:round;stroke-miterlimit:10;stroke-dasharray:none;stroke-opacity:1"
             id="path284"
             inkscape:connector-curvature="0" /></g><g
           id="g288"><path
             d="M 606.72,364.84 H 624 v 17.28 h -17.28 z"
             style="fill:#ffffff;fill-opacity:1;fill-rule:nonzero;stroke:none"
             id="path290"
             inkscape:connector-curvature="0" /></g><g
           id="g294"><path
             d="m 611.33,373.48 c 0,2.21 1.81,4.02 4.03,4.02 2.21,0 4.02,-1.81 4.02,-4.02 0,-2.21 -1.81,-4.02 -4.02,-4.02 -2.22,0 -4.03,1.81 -4.03,4.02"
             style="fill:#9700c6;fill-opacity:1;fill-rule:nonzero;stroke:#9700c6;stroke-width:0.70999998;stroke-linecap:round;stroke-linejoin:round;stroke-miterlimit:10;stroke-dasharray:none;stroke-opacity:1"
             id="path296"
             inkscape:connector-curvature="0" /></g><g
           id="g300"><path
             d="M 606.72,347.56 H 624 v 17.28 h -17.28 z"
             style="fill:#ffffff;fill-opacity:1;fill-rule:nonzero;stroke:none"
             id="path302"
             inkscape:connector-curvature="0" /></g><g
           id="g306"><path
             d="m 610.28,356.2 c 0,2.79 2.28,5.08 5.08,5.08 2.79,0 5.07,-2.29 5.07,-5.08 0,-2.79 -2.28,-5.07 -5.07,-5.07 -2.8,0 -5.08,2.28 -5.08,5.07"
             style="fill:#c50090;fill-opacity:1;fill-rule:nonzero;stroke:#c50090;stroke-width:0.70999998;stroke-linecap:round;stroke-linejoin:round;stroke-miterlimit:10;stroke-dasharray:none;stroke-opacity:1"
             id="path308"
             inkscape:connector-curvature="0" /></g><g
           id="g312"><path
             d="M 606.72,330.28 H 624 v 17.28 h -17.28 z"
             style="fill:#ffffff;fill-opacity:1;fill-rule:nonzero;stroke:none"
             id="path314"
             inkscape:connector-curvature="0" /></g><g
           id="g318"><path
             d="m 609.47,338.92 c 0,3.24 2.65,5.89 5.89,5.89 3.23,0 5.88,-2.65 5.88,-5.89 0,-3.23 -2.65,-5.88 -5.88,-5.88 -3.24,0 -5.89,2.65 -5.89,5.88"
             style="fill:#e3005b;fill-opacity:1;fill-rule:nonzero;stroke:#e3005b;stroke-width:0.70999998;stroke-linecap:round;stroke-linejoin:round;stroke-miterlimit:10;stroke-dasharray:none;stroke-opacity:1"
             id="path320"
             inkscape:connector-curvature="0" /></g><g
           id="g324"><path
             d="M 606.72,313 H 624 v 17.28 h -17.28 z"
             style="fill:#ffffff;fill-opacity:1;fill-rule:nonzero;stroke:none"
             id="path326"
             inkscape:connector-curvature="0" /></g><g
           id="g330"><path
             d="m 608.79,321.64 c 0,3.61 2.95,6.57 6.57,6.57 3.61,0 6.56,-2.96 6.56,-6.57 0,-3.61 -2.95,-6.57 -6.56,-6.57 -3.62,0 -6.57,2.96 -6.57,6.57"
             style="fill:#f90021;fill-opacity:1;fill-rule:nonzero;stroke:#f90021;stroke-width:0.70999998;stroke-linecap:round;stroke-linejoin:round;stroke-miterlimit:10;stroke-dasharray:none;stroke-opacity:1"
             id="path332"
             inkscape:connector-curvature="0" /></g><g
           id="g340"><text
             transform="matrix(1,0,0,-1,630.97,386.81)"
             style="font-variant:normal;font-weight:normal;font-size:11px;font-family:Helvetica;-inkscape-font-specification:Helvetica;writing-mode:lr-tb;fill:#000000;fill-opacity:1;fill-rule:nonzero;stroke:none"
             id="text344"><tspan
               x="0"
               y="0"
               id="tspan342"
               style="font-style:normal;font-variant:normal;font-weight:normal;font-stretch:normal;font-size:14px;font-family:'Nimbus Sans';-inkscape-font-specification:'Nimbus Sans, Normal';font-variant-ligatures:normal;font-variant-caps:normal;font-variant-numeric:normal;font-feature-settings:normal;text-align:start;writing-mode:lr-tb;text-anchor:start">3</tspan></text>
</g><g
           id="g354"><text
             transform="matrix(1,0,0,-1,630.97,369.53)"
             style="font-variant:normal;font-weight:normal;font-size:11px;font-family:Helvetica;-inkscape-font-specification:Helvetica;writing-mode:lr-tb;fill:#000000;fill-opacity:1;fill-rule:nonzero;stroke:none"
             id="text358"><tspan
               x="0"
               y="0"
               id="tspan356"
               style="font-style:normal;font-variant:normal;font-weight:normal;font-stretch:normal;font-size:14px;font-family:'Nimbus Sans';-inkscape-font-specification:'Nimbus Sans, Normal';font-variant-ligatures:normal;font-variant-caps:normal;font-variant-numeric:normal;font-feature-settings:normal;text-align:start;writing-mode:lr-tb;text-anchor:start">4</tspan></text>
</g><g
           id="g368"><text
             transform="matrix(1,0,0,-1,630.97,352.25)"
             style="font-variant:normal;font-weight:normal;font-size:11px;font-family:Helvetica;-inkscape-font-specification:Helvetica;writing-mode:lr-tb;fill:#000000;fill-opacity:1;fill-rule:nonzero;stroke:none"
             id="text372"><tspan
               x="0"
               y="0"
               id="tspan370"
               style="font-style:normal;font-variant:normal;font-weight:normal;font-stretch:normal;font-size:14px;font-family:'Nimbus Sans';-inkscape-font-specification:'Nimbus Sans, Normal';font-variant-ligatures:normal;font-variant-caps:normal;font-variant-numeric:normal;font-feature-settings:normal;text-align:start;writing-mode:lr-tb;text-anchor:start">5</tspan></text>
</g><g
           id="g382"><text
             transform="matrix(1,0,0,-1,630.97,334.97)"
             style="font-variant:normal;font-weight:normal;font-size:11px;font-family:Helvetica;-inkscape-font-specification:Helvetica;writing-mode:lr-tb;fill:#000000;fill-opacity:1;fill-rule:nonzero;stroke:none"
             id="text386"><tspan
               x="0"
               y="0"
               id="tspan384"
               style="font-style:normal;font-variant:normal;font-weight:normal;font-stretch:normal;font-size:14px;font-family:'Nimbus Sans';-inkscape-font-specification:'Nimbus Sans, Normal';font-variant-ligatures:normal;font-variant-caps:normal;font-variant-numeric:normal;font-feature-settings:normal;text-align:start;writing-mode:lr-tb;text-anchor:start">6</tspan></text>
</g><g
           id="g396"><text
             transform="matrix(1,0,0,-1,630.97,317.69)"
             style="font-variant:normal;font-weight:normal;font-size:11px;font-family:Helvetica;-inkscape-font-specification:Helvetica;writing-mode:lr-tb;fill:#000000;fill-opacity:1;fill-rule:nonzero;stroke:none"
             id="text400"><tspan
               x="0"
               y="0"
               id="tspan398"
               style="font-style:normal;font-variant:normal;font-weight:normal;font-stretch:normal;font-size:14px;font-family:'Nimbus Sans';-inkscape-font-specification:'Nimbus Sans, Normal';font-variant-ligatures:normal;font-variant-caps:normal;font-variant-numeric:normal;font-feature-settings:normal;text-align:start;writing-mode:lr-tb;text-anchor:start">7</tspan></text>
</g></g><g
         id="g402" /><g
         id="g404" /><g
         id="g406" /><g
         id="g408" /><g
         id="g410" /><g
         id="g412" /><g
         id="g414"
         transform="translate(0,-3.0000001)"><text
           id="text418"
           style="font-variant:normal;font-weight:normal;font-size:17px;font-family:Helvetica;-inkscape-font-specification:Helvetica;writing-mode:lr-tb;fill:#000000;fill-opacity:1;fill-rule:nonzero;stroke:none"
           transform="matrix(1,0,0,-1,337.34,702.31)"><tspan
             y="0"
             x="0"
             style="font-style:normal;font-variant:normal;font-weight:normal;font-stretch:normal;font-size:14px;font-family:'Nimbus Sans';-inkscape-font-specification:'Nimbus Sans, Normal';font-variant-ligatures:normal;font-variant-caps:normal;font-variant-numeric:normal;font-feature-settings:normal;text-align:start;writing-mode:lr-tb;text-anchor:start"
             id="tspan416"
             sodipodi:role="line">Eriched Pathways for INV Low Phenotype</tspan></text>
</g><g
         id="g420" /><g
         id="g422" /><g
         id="g424" /><g
         id="g426" /><g
         id="g428" /><g
         id="g430" /><flowRoot
         style="font-style:normal;font-weight:normal;font-size:40px;line-height:1.25;font-family:sans-serif;letter-spacing:0px;word-spacing:0px;fill:#000000;fill-opacity:1;stroke:none"
         id="flowRoot432"
         xml:space="preserve"><flowRegion
           id="flowRegion434"><rect
             y="372"
             x="778.66669"
             height="240"
             width="317.33334"
             id="rect436" /></flowRegion><flowPara
           id="flowPara438"></flowPara></flowRoot></g></g></svg>