<?xml version="1.0" encoding="UTF-8" standalone="no"?>
<!-- Created with Inkscape (http://www.inkscape.org/) -->

<svg
   xmlns:dc="http://purl.org/dc/elements/1.1/"
   xmlns:cc="http://creativecommons.org/ns#"
   xmlns:rdf="http://www.w3.org/1999/02/22-rdf-syntax-ns#"
   xmlns:svg="http://www.w3.org/2000/svg"
   xmlns="http://www.w3.org/2000/svg"
   xmlns:sodipodi="http://sodipodi.sourceforge.net/DTD/sodipodi-0.dtd"
   xmlns:inkscape="http://www.inkscape.org/namespaces/inkscape"
   version="1.1"
   id="svg2"
   xml:space="preserve"
   width="797.75464"
   height="551.534"
   viewBox="0 0 797.75464 551.534"
   sodipodi:docname="Enriched_Pathways_INV_Low_Figure_4B.svg"
   inkscape:version="0.92.5 (2060ec1f9f, 2020-04-08)"><metadata
     id="metadata8"><rdf:RDF><cc:Work
         rdf:about=""><dc:format>image/svg+xml</dc:format><dc:type
           rdf:resource="http://purl.org/dc/dcmitype/StillImage" /><dc:title></dc:title></cc:Work></rdf:RDF></metadata><defs
     id="defs6"><clipPath
       clipPathUnits="userSpaceOnUse"
       id="clipPath20"><path
         d="m 402.164,23.496 h 182.793 v 365.68 H 402.164 Z"
         id="path18"
         inkscape:connector-curvature="0" /></clipPath><clipPath
       clipPathUnits="userSpaceOnUse"
       id="clipPath30"><path
         d="M 0,0 H 602 V 421 H 0 Z"
         id="path28"
         inkscape:connector-curvature="0" /></clipPath></defs><sodipodi:namedview
     pagecolor="#ffffff"
     bordercolor="#666666"
     borderopacity="1"
     objecttolerance="10"
     gridtolerance="10"
     guidetolerance="10"
     inkscape:pageopacity="0"
     inkscape:pageshadow="2"
     inkscape:window-width="2486"
     inkscape:window-height="1376"
     id="namedview4"
     showgrid="false"
     inkscape:zoom="1"
     inkscape:cx="396.87466"
     inkscape:cy="280.23101"
     inkscape:window-x="74"
     inkscape:window-y="27"
     inkscape:window-maximized="1"
     inkscape:current-layer="g64" /><g
     id="g10"
     inkscape:groupmode="layer"
     inkscape:label="Enriched_Pathways_INV_Low_Figure_4B"
     transform="matrix(1.3333333,0,0,1.3333333,-3.9999999,-8.9280026)"><g
       id="g12" /><g
       id="g14"><g
         id="g16"
         clip-path="url(#clipPath20)"><g
           id="g22"><g
             id="g24"><g
               id="g26"
               clip-path="url(#clipPath30)"><g
                 id="g32"><path
                   d="m 402.164,23.496 h 182.793 v 365.68 H 402.164 Z"
                   style="fill:#ffffff;fill-opacity:1;fill-rule:nonzero;stroke:none"
                   id="path34"
                   inkscape:connector-curvature="0" /><g
                   id="g36"
                   transform="scale(1,-1)"><path
                     d="m 406.137,-353.785 c 0,2.39 1.949,4.34 4.34,4.34 2.39,0 4.339,-1.95 4.339,-4.34 0,-2.379 -1.949,-4.34 -4.339,-4.34 -2.391,0 -4.34,1.961 -4.34,4.34"
                     style="fill:#a600b7;fill-opacity:1;fill-rule:nonzero;stroke:#a600b7;stroke-width:0.70999998;stroke-linecap:round;stroke-linejoin:round;stroke-miterlimit:10;stroke-dasharray:none;stroke-opacity:1"
                     id="path38"
                     inkscape:connector-curvature="0" /></g><g
                   id="g40"
                   transform="scale(1,-1)"><path
                     d="m 406.484,-294.805 c 0,3.149 2.571,5.719 5.711,5.719 3.153,0 5.719,-2.57 5.719,-5.719 0,-3.14 -2.566,-5.711 -5.719,-5.711 -3.14,0 -5.711,2.571 -5.711,5.711"
                     style="fill:#dd0067;fill-opacity:1;fill-rule:nonzero;stroke:#dd0067;stroke-width:0.70999998;stroke-linecap:round;stroke-linejoin:round;stroke-miterlimit:10;stroke-dasharray:none;stroke-opacity:1"
                     id="path42"
                     inkscape:connector-curvature="0" /></g><g
                   id="g44"
                   transform="scale(1,-1)"><path
                     d="m 406.848,-235.824 c 0,3.719 3.039,6.758 6.75,6.758 3.718,0 6.757,-3.039 6.757,-6.758 0,-3.711 -3.039,-6.75 -6.757,-6.75 -3.711,0 -6.75,3.039 -6.75,6.75"
                     style="fill:#ff0000;fill-opacity:1;fill-rule:nonzero;stroke:#ff0000;stroke-width:0.70999998;stroke-linecap:round;stroke-linejoin:round;stroke-miterlimit:10;stroke-dasharray:none;stroke-opacity:1"
                     id="path46"
                     inkscape:connector-curvature="0" /></g><g
                   id="g48"
                   transform="scale(1,-1)"><path
                     d="m 426.605,-176.836 c 0,0.781 0.641,1.422 1.422,1.422 0.778,0 1.418,-0.641 1.418,-1.422 0,-0.789 -0.64,-1.43 -1.418,-1.43 -0.781,0 -1.422,0.641 -1.422,1.43"
                     style="fill:#0000ff;fill-opacity:1;fill-rule:nonzero;stroke:#0000ff;stroke-width:0.70999998;stroke-linecap:round;stroke-linejoin:round;stroke-miterlimit:10;stroke-dasharray:none;stroke-opacity:1"
                     id="path50"
                     inkscape:connector-curvature="0" /></g><g
                   id="g52"
                   transform="scale(1,-1)"><path
                     d="m 559.645,-117.855 c 0,1.769 1.453,3.21 3.222,3.21 1.758,0 3.207,-1.441 3.207,-3.21 0,-1.77 -1.449,-3.219 -3.207,-3.219 -1.769,0 -3.222,1.449 -3.222,3.219"
                     style="fill:#6e00e3;fill-opacity:1;fill-rule:nonzero;stroke:#6e00e3;stroke-width:0.70999998;stroke-linecap:round;stroke-linejoin:round;stroke-miterlimit:10;stroke-dasharray:none;stroke-opacity:1"
                     id="path54"
                     inkscape:connector-curvature="0" /></g><g
                   id="g56"
                   transform="scale(1,-1)"><path
                     d="m 573.426,-58.875 c 0,1.77 1.449,3.211 3.219,3.211 1.769,0 3.21,-1.441 3.21,-3.211 0,-1.77 -1.441,-3.219 -3.21,-3.219 -1.77,0 -3.219,1.449 -3.219,3.219"
                     style="fill:#6e00e3;fill-opacity:1;fill-rule:nonzero;stroke:#6e00e3;stroke-width:0.70999998;stroke-linecap:round;stroke-linejoin:round;stroke-miterlimit:10;stroke-dasharray:none;stroke-opacity:1"
                     id="path58"
                     inkscape:connector-curvature="0" /></g><g
                   id="g60"
                   transform="scale(1,-1)"><path
                     d="m 402.164,-23.496 h 182.793 v -365.68 H 402.164 Z"
                     style="fill:none;stroke:#333333;stroke-width:1.07000005;stroke-linecap:round;stroke-linejoin:round;stroke-miterlimit:10;stroke-dasharray:none;stroke-opacity:1"
                     id="path62"
                     inkscape:connector-curvature="0" /></g></g></g></g></g></g></g><g
       id="g64"><text
         transform="translate(146.156,358.8045)"
         style="font-variant:normal;font-weight:normal;font-size:14px;font-family:'Nimbus Sans';-inkscape-font-specification:NimbusSans-Regular;writing-mode:lr-tb;fill:#4363d8;fill-opacity:1;fill-rule:nonzero;stroke:none"
         id="text72"><tspan
           x="0 10.892 18.676001 26.459999 34.243999 39.116001 42.223999 49.223999 53.116001 59.990002 64.512001 72.295998 80.080002 87.080002 94.080002 98.952003 102.06 109.844 113.736 116.844 124.628 132.412 136.304 145.082 152.866 156.758 164.54201 174.44 181.804 188.804 192.696 196.588 204.37199 212.15601 216.048 223.832 231.616 239.39999 247.18401"
           y="0"
           sodipodi:role="line"
           id="tspan66"
           style="font-style:normal;font-variant:normal;font-weight:bold;font-stretch:normal;font-size:14px;font-family:'Nimbus Sans';-inkscape-font-specification:'Nimbus Sans, Bold';font-variant-ligatures:normal;font-variant-caps:normal;font-variant-numeric:normal;font-feature-settings:normal;text-align:start;writing-mode:lr-tb;text-anchor:start">Generic Transcription Pathway [14/1091]</tspan><tspan
           x="-12.569998 -2.461998 7.6460018 16.984001 20.876001 29.514002 37.298 40.406002 47.406002 59.068001 66.852005 71.374001 79.158005 86.158005 93.942001 97.834 101.72601 105.618 109.51 116.384 120.906 128.69 136.474 143.474 150.474 155.34601 158.45399 166.23801 170.13 173.23801 181.022 188.806 192.698 196.59 204.37401 212.158 216.05 223.834 231.618 239.40201 247.186"
           y="-58.98"
           sodipodi:role="line"
           id="tspan68"
           style="font-style:normal;font-variant:normal;font-weight:bold;font-stretch:normal;font-size:14px;font-family:'Nimbus Sans';-inkscape-font-specification:'Nimbus Sans, Bold';font-variant-ligatures:normal;font-variant-caps:normal;font-variant-numeric:normal;font-feature-settings:normal;text-align:start;writing-mode:lr-tb;text-anchor:start">RNA Polymerase II Transcription [17/1219]</tspan><tspan
           x="-9.1099958 1.782004 9.5660038 17.350004 25.134005 29.026005 36.390003 43.390003 51.174004 55.836002 63.620003 70.620003 77.620003 80.728004 88.512001 96.296005 100.188 104.85001 111.72401 116.246 124.03001 131.81401 138.81401 145.81401 150.686 153.79401 161.578 165.47 168.578 176.362 184.14601 188.808 192.7 196.59201 204.37601 212.16 216.052 223.836 231.62001 239.40401 247.188"
           y="-117.96"
           sodipodi:role="line"
           id="tspan70"
           style="font-style:normal;font-variant:normal;font-weight:bold;font-stretch:normal;font-size:14px;font-family:'Nimbus Sans';-inkscape-font-specification:'Nimbus Sans, Bold';font-variant-ligatures:normal;font-variant-caps:normal;font-variant-numeric:normal;font-feature-settings:normal;text-align:start;writing-mode:lr-tb;text-anchor:start">Gene expression (Transcription) [20/1347]</tspan></text>
<text
         transform="translate(162.256,181.86451)"
         style="font-style:normal;font-variant:normal;font-weight:bold;font-stretch:normal;font-size:14px;font-family:'Nimbus Sans';-inkscape-font-specification:'Nimbus Sans, Bold';font-variant-ligatures:normal;font-variant-caps:normal;font-variant-numeric:normal;font-feature-settings:normal;text-align:start;writing-mode:lr-tb;text-anchor:start;fill:#3cb44b;fill-opacity:1;fill-rule:nonzero;stroke:none"
         id="text78"><tspan
           x="0 10.108 17.892 22.554001 30.337999 42 49.784 53.675999 56.784 64.568001 68.459999 80.122002 87.905998 95.690002 98.797997 102.69 109.69 112.798 120.582 128.366 132.258 140.04201 147.826 154.826 161.826 173.48801 181.272 188.272 192.164 196.056 203.84 207.73199 215.51601 223.3 231.084"
           y="0"
           sodipodi:role="line"
           id="tspan74"
           style="font-style:normal;font-variant:normal;font-weight:bold;font-stretch:normal;font-size:14px;font-family:'Nimbus Sans';-inkscape-font-specification:'Nimbus Sans, Bold';font-variant-ligatures:normal;font-variant-caps:normal;font-variant-numeric:normal;font-feature-settings:normal;text-align:start;writing-mode:lr-tb;text-anchor:start">Chromatin modifying enzymes [5/207]</tspan><tspan
           x="-146.23"
           y="-58.98"
           id="tspan76"
           style="font-style:normal;font-variant:normal;font-weight:bold;font-stretch:normal;font-size:14px;font-family:'Nimbus Sans';-inkscape-font-specification:'Nimbus Sans, Bold';font-variant-ligatures:normal;font-variant-caps:normal;font-variant-numeric:normal;font-feature-settings:normal;text-align:start;writing-mode:lr-tb;text-anchor:start">B</tspan></text>
<text
         transform="translate(25.363996,122.88451)"
         style="font-variant:normal;font-weight:normal;font-size:14px;font-family:'Nimbus Sans';-inkscape-font-specification:NimbusSans-Regular;writing-mode:lr-tb;fill:#3cb44b;fill-opacity:1;fill-rule:nonzero;stroke:none"
         id="text82"><tspan
           x="0"
           y="0"
           id="tspan80"
           style="font-style:normal;font-variant:normal;font-weight:bold;font-stretch:normal;font-size:14px;font-family:'Nimbus Sans';-inkscape-font-specification:'Nimbus Sans, Bold';font-variant-ligatures:normal;font-variant-caps:normal;font-variant-numeric:normal;font-feature-settings:normal;text-align:start;writing-mode:lr-tb;text-anchor:start">−</tspan></text>
<text
         transform="translate(33.539996,122.88451)"
         style="font-variant:normal;font-weight:normal;font-size:14px;font-family:'Nimbus Sans';-inkscape-font-specification:NimbusSans-Regular;writing-mode:lr-tb;fill:#3cb44b;fill-opacity:1;fill-rule:nonzero;stroke:none"
         id="text88"><tspan
           x="0 13.216 17.108 27.216 37.324001 41.216 48.216 56 67.662003 75.445999 78.554001 85.917999 92.917999 96.809998 104.594 112.378 119.378 122.486 126.378 129.48599 136.136 143.92 147.028 154.028 157.92 162.582 170.366 178.14999 185.93401 189.04201 196.826 200.718 208.502 215.502 219.394 224.056 234.164 244.272 253.61 257.50201 264.866 271.866 279.64999 284.31201 292.09601 299.09601 306.09601 309.20401 316.98801 324.772 328.664 332.556 340.34 344.23199 352.01599 359.79999"
           y="0"
           sodipodi:role="line"
           id="tspan84"
           style="font-style:normal;font-variant:normal;font-weight:bold;font-stretch:normal;font-size:14px;font-family:'Nimbus Sans';-inkscape-font-specification:'Nimbus Sans, Bold';font-variant-ligatures:normal;font-variant-caps:normal;font-variant-numeric:normal;font-feature-settings:normal;text-align:start;writing-mode:lr-tb;text-anchor:start">WICH complex positively regulates rRNA expression [3/27]</tspan><tspan
           x="11.976006 22.084005 29.868006 37.652004 45.436005 49.328007 52.436005 59.086006 66.870003 70.762009 78.546005 86.330009 89.438004 97.222008 105.006 112.79001 120.57401 124.466 127.57401 134.57401 138.466 143.12801 150.912 158.696 166.48001 169.58801 177.37201 181.26401 184.37201 192.15601 199.94 203.832 211.61601 215.50801 219.40001 224.06201 234.17001 244.278 253.61601 257.508 264.87201 271.87201 279.65601 284.31799 292.10202 299.10202 306.10202 309.20999 316.99402 324.77802 328.67001 332.56201 340.34601 344.23801 352.022 359.806"
           y="-58.98"
           sodipodi:role="line"
           id="tspan86"
           style="font-style:normal;font-variant:normal;font-weight:bold;font-stretch:normal;font-size:14px;font-family:'Nimbus Sans';-inkscape-font-specification:'Nimbus Sans, Bold';font-variant-ligatures:normal;font-variant-caps:normal;font-variant-numeric:normal;font-feature-settings:normal;text-align:start;writing-mode:lr-tb;text-anchor:start">Negative epigenetic regulation of rRNA expression [3/25]</tspan></text>
<g
         id="g90"
         transform="scale(1,-1)"><path
           d="m 399.426,-353.785 h 2.738"
           style="fill:none;stroke:#333333;stroke-width:1.07000005;stroke-linecap:butt;stroke-linejoin:round;stroke-miterlimit:10;stroke-dasharray:none;stroke-opacity:1"
           id="path92"
           inkscape:connector-curvature="0" /></g><g
         id="g94"
         transform="scale(1,-1)"><path
           d="m 399.426,-294.805 h 2.738"
           style="fill:none;stroke:#333333;stroke-width:1.07000005;stroke-linecap:butt;stroke-linejoin:round;stroke-miterlimit:10;stroke-dasharray:none;stroke-opacity:1"
           id="path96"
           inkscape:connector-curvature="0" /></g><g
         id="g98"
         transform="scale(1,-1)"><path
           d="m 399.426,-235.824 h 2.738"
           style="fill:none;stroke:#333333;stroke-width:1.07000005;stroke-linecap:butt;stroke-linejoin:round;stroke-miterlimit:10;stroke-dasharray:none;stroke-opacity:1"
           id="path100"
           inkscape:connector-curvature="0" /></g><g
         id="g102"
         transform="scale(1,-1)"><path
           d="m 399.426,-176.836 h 2.738"
           style="fill:none;stroke:#333333;stroke-width:1.07000005;stroke-linecap:butt;stroke-linejoin:round;stroke-miterlimit:10;stroke-dasharray:none;stroke-opacity:1"
           id="path104"
           inkscape:connector-curvature="0" /></g><g
         id="g106"
         transform="scale(1,-1)"><path
           d="m 399.426,-117.855 h 2.738"
           style="fill:none;stroke:#333333;stroke-width:1.07000005;stroke-linecap:butt;stroke-linejoin:round;stroke-miterlimit:10;stroke-dasharray:none;stroke-opacity:1"
           id="path108"
           inkscape:connector-curvature="0" /></g><g
         id="g110"
         transform="scale(1,-1)"><path
           d="m 399.426,-58.875 h 2.738"
           style="fill:none;stroke:#333333;stroke-width:1.07000005;stroke-linecap:butt;stroke-linejoin:round;stroke-miterlimit:10;stroke-dasharray:none;stroke-opacity:1"
           id="path112"
           inkscape:connector-curvature="0" /></g><g
         id="g114"
         transform="scale(1,-1)"><path
           d="m 429.336,-391.914 v 2.738"
           style="fill:none;stroke:#333333;stroke-width:1.07000005;stroke-linecap:butt;stroke-linejoin:round;stroke-miterlimit:10;stroke-dasharray:none;stroke-opacity:1"
           id="path116"
           inkscape:connector-curvature="0" /></g><g
         id="g118"
         transform="scale(1,-1)"><path
           d="m 468.105,-391.914 v 2.738"
           style="fill:none;stroke:#333333;stroke-width:1.07000005;stroke-linecap:butt;stroke-linejoin:round;stroke-miterlimit:10;stroke-dasharray:none;stroke-opacity:1"
           id="path120"
           inkscape:connector-curvature="0" /></g><g
         id="g122"
         transform="scale(1,-1)"><path
           d="m 506.867,-391.914 v 2.738"
           style="fill:none;stroke:#333333;stroke-width:1.07000005;stroke-linecap:butt;stroke-linejoin:round;stroke-miterlimit:10;stroke-dasharray:none;stroke-opacity:1"
           id="path124"
           inkscape:connector-curvature="0" /></g><g
         id="g126"
         transform="scale(1,-1)"><path
           d="m 545.637,-391.914 v 2.738"
           style="fill:none;stroke:#333333;stroke-width:1.07000005;stroke-linecap:butt;stroke-linejoin:round;stroke-miterlimit:10;stroke-dasharray:none;stroke-opacity:1"
           id="path128"
           inkscape:connector-curvature="0" /></g><g
         id="g130"
         transform="scale(1,-1)"><path
           d="m 584.395,-391.914 v 2.738"
           style="fill:none;stroke:#333333;stroke-width:1.07000005;stroke-linecap:butt;stroke-linejoin:round;stroke-miterlimit:10;stroke-dasharray:none;stroke-opacity:1"
           id="path132"
           inkscape:connector-curvature="0" /></g><text
         style="font-variant:normal;font-weight:normal;font-size:14px;font-family:'Nimbus Sans';-inkscape-font-specification:NimbusSans-Regular;writing-mode:lr-tb;fill:#000000;fill-opacity:1;fill-rule:nonzero;stroke:none"
         id="text138"
         x="407.32599"
         y="404.15451"><tspan
           x="407.32599 415.10999 419.00198 426.78598 434.56998 446.09198 453.87598 457.76801 465.552 484.858 492.642 496.534 504.31799 512.10199 523.60999 531.39398 535.28601 543.07001 562.39001 570.17401 574.06598 581.84998 589.63397"
           y="404.15451"
           sodipodi:role="line"
           id="tspan134">0.0250.050.0750.100.125</tspan><tspan
           x="453.65601 464.548 472.332 480.116 487.89999 491.79199 501.89999 509.68402 513.57599 516.68402"
           y="420.02451"
           sodipodi:role="line"
           id="tspan136"
           style="font-style:normal;font-variant:normal;font-weight:normal;font-stretch:normal;font-size:14px;font-family:'Nimbus Sans';-inkscape-font-specification:'Nimbus Sans, Normal';font-variant-ligatures:normal;font-variant-caps:normal;font-variant-numeric:normal;font-feature-settings:normal;text-align:start;writing-mode:lr-tb;text-anchor:start">Gene Ratio</tspan></text>
<text
         transform="rotate(-90)"
         style="font-style:normal;font-variant:normal;font-weight:normal;font-stretch:normal;font-size:14px;font-family:'Nimbus Sans';-inkscape-font-specification:'Nimbus Sans, Normal';font-variant-ligatures:normal;font-variant-caps:normal;font-variant-numeric:normal;font-feature-settings:normal;text-align:start;writing-mode:lr-tb;text-anchor:start;fill:#000000;fill-opacity:1;fill-rule:nonzero;stroke:none"
         id="text142"
         x="-265.75449"
         y="14.706"><tspan
           x="-265.75449 -256.4165 -248.63251 -243.7605 -240.6525 -233.6525 -225.8685 -218.0845 -210.30051 -206.40849 -197.63049 -189.8465 -185.9545 -178.1705 -168.27249 -160.90849 -153.90849"
           y="14.706"
           sodipodi:role="line"
           id="tspan140"
           style="font-style:normal;font-variant:normal;font-weight:normal;font-stretch:normal;font-size:14px;font-family:'Nimbus Sans';-inkscape-font-specification:'Nimbus Sans, Normal';font-variant-ligatures:normal;font-variant-caps:normal;font-variant-numeric:normal;font-feature-settings:normal;text-align:start;writing-mode:lr-tb;text-anchor:start">Enriched Pathways</tspan></text>
<path
         d="M 466.617,264.215 H 579.894 V 381.676 H 466.617 Z"
         style="fill:#ffffff;fill-opacity:1;fill-rule:nonzero;stroke:none"
         id="path144"
         inkscape:connector-curvature="0" /><text
         transform="translate(472.09599,281.2745)"
         style="font-variant:normal;font-weight:normal;font-size:14px;font-family:'Nimbus Sans';-inkscape-font-specification:NimbusSans-Regular;writing-mode:lr-tb;fill:#000000;fill-opacity:1;fill-rule:nonzero;stroke:none"
         id="text148"><tspan
           x="0"
           y="0"
           id="tspan146">−</tspan></text>
<text
         transform="translate(480.27199,281.2745)"
         style="font-variant:normal;font-weight:normal;font-size:14px;font-family:'Nimbus Sans';-inkscape-font-specification:NimbusSans-Regular;writing-mode:lr-tb;fill:#000000;fill-opacity:1;fill-rule:nonzero;stroke:none"
         id="text152"><tspan
           x="0 3.108 10.892 18.676001 26.459999 34.243999 38.905998 48.243999 52.136002 59.919998 67.704002 70.811996 78.596001 85.596001 89.487999"
           y="0"
           sodipodi:role="line"
           id="tspan150">log10(P.adjust)</tspan></text>
<path
         d="m 472.098,289.793 h 17.277 v 17.281 h -17.277 z"
         style="fill:#ffffff;fill-opacity:1;fill-rule:nonzero;stroke:none"
         id="path154"
         inkscape:connector-curvature="0" /><g
         id="g156"
         transform="scale(1,-1)"><path
           d="m 478.875,-298.434 c 0,1.02 0.84,1.848 1.859,1.848 1.012,0 1.852,-0.828 1.852,-1.848 0,-1.019 -0.84,-1.851 -1.852,-1.851 -1.019,0 -1.859,0.832 -1.859,1.851"
           style="fill:#1800fd;fill-opacity:1;fill-rule:nonzero;stroke:#1800fd;stroke-width:0.70999998;stroke-linecap:round;stroke-linejoin:round;stroke-miterlimit:10;stroke-dasharray:none;stroke-opacity:1"
           id="path158"
           inkscape:connector-curvature="0" /></g><path
         d="m 472.098,307.074 h 17.277 v 17.281 h -17.277 z"
         style="fill:#ffffff;fill-opacity:1;fill-rule:nonzero;stroke:none"
         id="path160"
         inkscape:connector-curvature="0" /><g
         id="g162"
         transform="scale(1,-1)"><path
           d="m 476.707,-315.715 c 0,2.211 1.809,4.02 4.027,4.02 2.211,0 4.024,-1.809 4.024,-4.02 0,-2.211 -1.813,-4.019 -4.024,-4.019 -2.218,0 -4.027,1.808 -4.027,4.019"
           style="fill:#9700c6;fill-opacity:1;fill-rule:nonzero;stroke:#9700c6;stroke-width:0.70999998;stroke-linecap:round;stroke-linejoin:round;stroke-miterlimit:10;stroke-dasharray:none;stroke-opacity:1"
           id="path164"
           inkscape:connector-curvature="0" /></g><path
         d="m 472.098,324.355 h 17.277 v 17.277 h -17.277 z"
         style="fill:#ffffff;fill-opacity:1;fill-rule:nonzero;stroke:none"
         id="path166"
         inkscape:connector-curvature="0" /><g
         id="g168"
         transform="scale(1,-1)"><path
           d="m 475.656,-332.996 c 0,2.793 2.282,5.082 5.078,5.082 2.793,0 5.071,-2.289 5.071,-5.082 0,-2.789 -2.278,-5.07 -5.071,-5.07 -2.796,0 -5.078,2.281 -5.078,5.07"
           style="fill:#c50090;fill-opacity:1;fill-rule:nonzero;stroke:#c50090;stroke-width:0.70999998;stroke-linecap:round;stroke-linejoin:round;stroke-miterlimit:10;stroke-dasharray:none;stroke-opacity:1"
           id="path170"
           inkscape:connector-curvature="0" /></g><path
         d="m 472.098,341.633 h 17.277 v 17.281 h -17.277 z"
         style="fill:#ffffff;fill-opacity:1;fill-rule:nonzero;stroke:none"
         id="path172"
         inkscape:connector-curvature="0" /><g
         id="g174"
         transform="scale(1,-1)"><path
           d="m 474.848,-350.273 c 0,3.238 2.648,5.89 5.886,5.89 3.231,0 5.883,-2.652 5.883,-5.89 0,-3.231 -2.652,-5.883 -5.883,-5.883 -3.238,0 -5.886,2.652 -5.886,5.883"
           style="fill:#e3005b;fill-opacity:1;fill-rule:nonzero;stroke:#e3005b;stroke-width:0.70999998;stroke-linecap:round;stroke-linejoin:round;stroke-miterlimit:10;stroke-dasharray:none;stroke-opacity:1"
           id="path176"
           inkscape:connector-curvature="0" /></g><path
         d="m 472.098,358.914 h 17.277 v 17.281 h -17.277 z"
         style="fill:#ffffff;fill-opacity:1;fill-rule:nonzero;stroke:none"
         id="path178"
         inkscape:connector-curvature="0" /><g
         id="g180"
         transform="scale(1,-1)"><path
           d="m 474.164,-367.555 c 0,3.61 2.953,6.571 6.57,6.571 3.614,0 6.563,-2.961 6.563,-6.571 0,-3.609 -2.949,-6.57 -6.563,-6.57 -3.617,0 -6.57,2.961 -6.57,6.57"
           style="fill:#f90021;fill-opacity:1;fill-rule:nonzero;stroke:#f90021;stroke-width:0.70999998;stroke-linecap:round;stroke-linejoin:round;stroke-miterlimit:10;stroke-dasharray:none;stroke-opacity:1"
           id="path182"
           inkscape:connector-curvature="0" /></g><text
         transform="translate(496.34599,302.3845)"
         style="font-variant:normal;font-weight:normal;font-size:11px;font-family:'Nimbus Sans';-inkscape-font-specification:NimbusSans-Regular;writing-mode:lr-tb;fill:#000000;fill-opacity:1;fill-rule:nonzero;stroke:none"
         id="text194"><tspan
           x="0"
           y="0"
           id="tspan184">3</tspan><tspan
           x="0"
           y="17.279999"
           id="tspan186">4</tspan><tspan
           x="0"
           y="34.559998"
           id="tspan188">5</tspan><tspan
           x="0"
           y="51.839996"
           id="tspan190">6</tspan><tspan
           x="0"
           y="69.119995"
           id="tspan192">7</tspan></text>
<text
         style="font-variant:normal;font-weight:normal;font-size:17px;font-family:'Nimbus Sans';-inkscape-font-specification:NimbusSans-Regular;writing-mode:lr-tb;fill:#000000;fill-opacity:1;fill-rule:nonzero;stroke:none"
         id="text198"
         x="319.45667"
         y="19.944002"><tspan
           sodipodi:role="line"
           id="tspan196"
           style="font-style:normal;font-variant:normal;font-weight:normal;font-stretch:normal;font-size:14px;font-family:'Nimbus Sans';-inkscape-font-specification:'Nimbus Sans, Normal';font-variant-ligatures:normal;font-variant-caps:normal;font-variant-numeric:normal;font-feature-settings:normal;text-align:start;writing-mode:lr-tb;text-anchor:start"
           x="319.45667"
           y="19.944002">Enriched Pathways for INV Low Phenotype</tspan></text>
<flowRoot
         xml:space="preserve"
         id="flowRoot1005"
         style="font-style:normal;font-variant:normal;font-weight:normal;font-stretch:normal;font-size:13.33333302px;line-height:1.25;font-family:'Nimbus Sans';-inkscape-font-specification:'Nimbus Sans, Normal';font-variant-ligatures:normal;font-variant-caps:normal;font-variant-numeric:normal;text-align:start;letter-spacing:0px;word-spacing:0px;writing-mode:lr-tb;text-anchor:start;fill:#000000;fill-opacity:1;stroke:none"
         transform="matrix(0.75000002,0,0,0.75000002,0,-1.3508663e-5)"><flowRegion
           id="flowRegion1007"><rect
             id="rect1009"
             width="1143"
             height="769"
             x="-166"
             y="-142.53802" /></flowRegion><flowPara
           id="flowPara1011"></flowPara></flowRoot></g></g></svg>